<svg width="400" height="200" viewBox="0 0 400 200" fill="none" xmlns="http://www.w3.org/2000/svg">
<rect width="400" height="200" fill="#130C24"/>
<path d="M321.777 161H24V11H321.777V161ZM38.8887 19V154H306.889V19H38.8887Z" fill="#F2D544"/>
<path d="M359 183H61.2222V33H359V183ZM76.1109 41V176H344.111V41H76.1109Z" fill="#F2D544"/>
<g filter="url(#filter0_n_7_21)">
<path d="M129.12 68.776C131.04 70.248 132.576 71.912 133.728 73.768C135.136 75.944 136.288 78.216 137.184 80.584C138.144 82.888 138.912 85.32 139.488 87.88C139.808 88.904 140 89.928 140.064 90.952C140.192 91.912 140.288 92.904 140.352 93.928C140.224 96.936 140.096 99.976 139.968 103.048C139.904 106.056 139.584 109.032 139.008 111.976C139.008 112.04 138.976 112.072 138.912 112.072C138.912 112.072 138.912 112.104 138.912 112.168C137.632 115.944 135.872 119.528 133.632 122.92C131.456 126.312 129.152 129.512 126.72 132.52C122.496 132.648 118.24 132.744 113.952 132.808C109.664 132.808 105.504 132.808 101.472 132.808C101.472 132.808 101.44 132.84 101.376 132.904C100.672 127.848 100.224 122.632 100.032 117.256C99.84 111.816 99.744 106.312 99.744 100.744C99.744 95.176 99.776 89.576 99.84 83.944C99.968 78.248 99.968 72.616 99.84 67.048C99.904 66.984 99.936 66.92 99.936 66.856C100 66.792 100.064 66.728 100.128 66.664C101.92 66.216 103.776 65.928 105.696 65.8C107.68 65.608 109.664 65.544 111.648 65.608C113.632 65.608 115.584 65.64 117.504 65.704C119.488 65.768 121.408 65.768 123.264 65.704C125.312 66.216 127.264 67.24 129.12 68.776ZM123.552 110.344C124.064 109.768 124.512 109.192 124.896 108.616C125.984 106.952 126.752 105.128 127.2 103.144C127.712 101.16 127.712 98.984 127.2 96.616C127.008 95.656 126.784 94.664 126.528 93.64C126.272 92.552 125.888 91.528 125.376 90.568C124.928 89.608 124.352 88.776 123.648 88.072C122.944 87.304 122.048 86.728 120.96 86.344C119.872 86.216 118.688 86.152 117.408 86.152C116.128 86.088 114.912 86.184 113.76 86.44H113.568H113.472V86.824C113.6 88.552 113.664 90.408 113.664 92.392C113.664 94.376 113.632 96.456 113.568 98.632C113.504 100.744 113.472 102.92 113.472 105.16C113.472 107.336 113.536 109.512 113.664 111.688C114.368 112.328 115.328 112.616 116.544 112.552C117.824 112.488 119.04 112.392 120.192 112.264C120.512 112.328 120.8 112.296 121.056 112.168C121.312 111.976 121.6 111.816 121.92 111.688C122.56 111.304 123.104 110.856 123.552 110.344ZM204.827 75.592C206.491 78.728 206.875 82.696 205.979 87.496H205.883C203.643 87.88 201.243 88.136 198.683 88.264C196.123 88.328 193.723 88.04 191.483 87.4C191.867 85.672 191.515 84.232 190.427 83.08C189.339 81.928 188.027 81.192 186.491 80.872C184.955 80.552 183.451 80.712 181.979 81.352C180.571 81.992 179.739 83.208 179.483 85C179.355 85.448 179.291 85.896 179.291 86.344C179.355 86.728 179.419 87.144 179.483 87.592C179.995 89.128 180.827 90.152 181.979 90.664C183.131 91.176 184.379 91.528 185.723 91.72C189.115 92.104 192.251 93.192 195.131 94.984C198.075 96.776 200.475 99.048 202.331 101.8C203.483 103.272 204.347 104.872 204.923 106.6C205.499 108.264 205.819 109.992 205.883 111.784C206.011 113.576 205.883 115.4 205.499 117.256C205.179 119.048 204.635 120.776 203.867 122.44C203.099 124.424 202.075 126.12 200.795 127.528C199.515 128.936 198.043 130.088 196.379 130.984C194.779 131.88 193.019 132.552 191.099 133C189.243 133.384 187.323 133.544 185.339 133.48C182.523 133.416 179.707 132.936 176.891 132.04C174.139 131.08 171.675 129.768 169.499 128.104C167.323 126.44 165.595 124.424 164.315 122.056C163.035 119.624 162.491 116.872 162.683 113.8V113.512V113.224C164.923 112.904 167.387 112.84 170.075 113.032C172.763 113.16 175.195 113.192 177.371 113.128C177.499 115.176 178.299 116.712 179.771 117.736C181.307 118.76 182.907 119.272 184.571 119.272C186.299 119.208 187.771 118.632 188.987 117.544C190.267 116.456 190.715 114.792 190.331 112.552C190.139 111.016 189.563 109.8 188.603 108.904C187.643 107.944 186.491 107.176 185.147 106.6C183.867 106.024 182.459 105.608 180.923 105.352C179.387 105.032 177.947 104.744 176.603 104.488C175.323 104.232 174.139 103.816 173.051 103.24C171.963 102.664 170.971 101.992 170.075 101.224C167.131 98.408 165.211 95.304 164.315 91.912C163.483 88.52 163.451 85.224 164.219 82.024C164.987 78.824 166.427 75.912 168.539 73.288C170.715 70.664 173.339 68.712 176.411 67.432C177.947 66.792 179.643 66.376 181.499 66.184C183.355 65.928 185.211 65.864 187.067 65.992C188.987 66.056 190.843 66.312 192.635 66.76C194.491 67.208 196.187 67.784 197.723 68.488C200.795 70.088 203.163 72.456 204.827 75.592Z" fill="#0AFFE2"/>
<path d="M241.136 99.688C241.136 99.688 241.2 99.656 241.328 99.592C242.16 99.08 243.504 98.792 245.36 98.728C247.28 98.6 249.296 98.568 251.408 98.632C253.52 98.696 255.472 98.824 257.264 99.016C259.12 99.144 260.368 99.208 261.008 99.208H261.2L261.296 99.304C261.68 102.696 261.936 106.312 262.064 110.152C262.192 113.928 261.936 117.544 261.296 121C260.976 124.264 259.984 126.76 258.32 128.488C256.656 130.216 254.608 131.528 252.176 132.424C250.576 132.872 248.912 133.256 247.184 133.576C245.456 133.96 243.696 134.216 241.904 134.344C240.112 134.536 238.352 134.536 236.624 134.344C234.96 134.152 233.36 133.736 231.824 133.096C229.264 132.008 227.312 130.536 225.968 128.68C224.624 126.824 223.568 124.52 222.8 121.768C222.608 121.064 222.384 120.104 222.128 118.888C221.936 117.608 221.776 116.328 221.648 115.048C221.456 113 221.296 111.144 221.168 109.48C221.04 107.816 220.912 106.184 220.784 104.584C220.72 102.92 220.656 101.192 220.592 99.4C220.592 97.544 220.624 95.432 220.688 93.064C220.752 91.016 220.848 88.936 220.976 86.824C221.104 84.648 221.328 82.536 221.648 80.488C221.968 78.376 222.512 76.328 223.28 74.344C224.112 72.36 225.456 70.728 227.312 69.448C228.592 68.36 230.032 67.56 231.632 67.048C233.232 66.536 234.896 66.152 236.624 65.896C240.144 65.448 243.504 65.576 246.704 66.28C249.904 66.92 252.656 68.104 254.96 69.832C257.264 71.56 258.992 73.864 260.144 76.744C261.296 79.56 261.648 82.92 261.2 86.824L261.104 87.4C260.976 87.592 260.688 87.688 260.24 87.688C259.792 87.688 259.056 87.72 258.032 87.784C257.072 87.784 256.24 87.816 255.536 87.88C254.896 87.88 254.224 87.88 253.52 87.88C252.88 87.88 252.208 87.848 251.504 87.784C250.8 87.72 249.968 87.624 249.008 87.496C248.816 86.856 248.528 86.088 248.144 85.192C247.824 84.232 247.376 83.368 246.8 82.6C246.288 81.768 245.68 81.064 244.976 80.488C244.272 79.848 243.44 79.528 242.48 79.528C241.392 79.464 240.336 79.432 239.312 79.432C238.288 79.432 237.392 79.816 236.624 80.584C236.496 80.712 236.304 81.064 236.048 81.64C235.856 82.152 235.696 82.664 235.568 83.176C235.12 84.712 234.736 86.568 234.416 88.744C234.16 90.92 233.968 93.256 233.84 95.752C233.712 98.184 233.68 100.712 233.744 103.336C233.808 105.96 233.936 108.456 234.128 110.824C234.256 112.232 234.512 113.768 234.896 115.432C235.28 117.096 236.08 118.408 237.296 119.368C237.872 119.752 238.608 120.04 239.504 120.232C240.464 120.36 241.456 120.328 242.48 120.136C243.568 119.944 244.56 119.688 245.456 119.368C246.16 119.048 246.768 118.632 247.28 118.12C247.792 117.544 248.176 116.808 248.432 115.912C248.496 115.656 248.56 115.24 248.624 114.664C248.752 114.024 248.816 113.384 248.816 112.744C248.88 112.104 248.88 111.528 248.816 111.016C248.816 110.504 248.72 110.216 248.528 110.152C248.144 110.088 247.6 110.088 246.896 110.152C246.256 110.152 245.552 110.184 244.784 110.248C244.08 110.248 243.408 110.248 242.768 110.248C242.192 110.184 241.744 110.088 241.424 109.96C241.296 108.936 241.2 108.04 241.136 107.272C241.136 106.504 241.136 105.768 241.136 105.064C241.2 104.296 241.232 103.528 241.232 102.76C241.232 101.992 241.168 101.032 241.04 99.88V99.784C241.04 99.72 241.072 99.688 241.136 99.688Z" fill="#B300FA"/>
</g>
<defs>
<filter id="filter0_n_7_21" x="99.744" y="65.224" width="162.512" height="69.408" filterUnits="userSpaceOnUse" color-interpolation-filters="sRGB">
<feFlood flood-opacity="0" result="BackgroundImageFix"/>
<feBlend mode="normal" in="SourceGraphic" in2="BackgroundImageFix" result="shape"/>
<feTurbulence type="fractalNoise" baseFrequency="1 1" stitchTiles="stitch" numOctaves="3" result="noise" seed="5765" />
<feColorMatrix in="noise" type="luminanceToAlpha" result="alphaNoise" />
<feComponentTransfer in="alphaNoise" result="coloredNoise1">
<feFuncA type="discrete" tableValues="1 1 1 1 1 1 1 1 1 1 1 1 1 1 1 1 1 1 1 1 1 1 1 1 1 1 1 1 1 1 1 1 1 1 1 1 1 1 1 1 1 1 1 1 1 1 1 1 1 1 1 0 0 0 0 0 0 0 0 0 0 0 0 0 0 0 0 0 0 0 0 0 0 0 0 0 0 0 0 0 0 0 0 0 0 0 0 0 0 0 0 0 0 0 0 0 0 0 0 0 "/>
</feComponentTransfer>
<feComposite operator="in" in2="shape" in="coloredNoise1" result="noise1Clipped" />
<feComponentTransfer in="alphaNoise" result="coloredNoise2">
<feFuncA type="discrete" tableValues="0 0 0 0 0 0 0 0 0 0 0 0 0 0 0 0 0 0 0 0 0 0 0 0 0 0 0 0 0 0 0 0 0 0 0 0 0 0 0 0 0 0 0 0 0 0 0 0 0 1 1 1 1 1 1 1 1 1 1 1 1 1 1 1 1 1 1 1 1 1 1 1 1 1 1 1 1 1 1 1 1 1 1 1 1 1 1 1 1 1 1 1 1 1 1 1 1 1 1 1 "/>
</feComponentTransfer>
<feComposite operator="in" in2="shape" in="coloredNoise2" result="noise2Clipped" />
<feFlood flood-color="rgba(0, 0, 0, 0.25)" result="color1Flood" />
<feComposite operator="in" in2="noise1Clipped" in="color1Flood" result="color1" />
<feFlood flood-color="rgba(255, 255, 255, 0.25)" result="color2Flood" />
<feComposite operator="in" in2="noise2Clipped" in="color2Flood" result="color2" />
<feMerge result="effect1_noise_7_21">
<feMergeNode in="shape" />
<feMergeNode in="color1" />
<feMergeNode in="color2" />
</feMerge>
</filter>
</defs>
</svg>
